<svg xmlns="http://www.w3.org/2000/svg" xmlns:xlink="http://www.w3.org/1999/xlink" width="768" height="1024" viewBox="0 0 768 1024"><defs><clipPath id="b"><rect width="768" height="1024"/></clipPath></defs><g id="a" clip-path="url(#b)"><rect width="768" height="1024" fill="#fff"/><g transform="translate(-185)"><path d="M0,0H739V1053.553H513c-283.322,0-384.75-420.755-513-684.143S0,0,0,0Z" transform="translate(541 0)" fill="#7fbcbe"/></g><g transform="translate(161.171 -28.18)"><g transform="translate(137.726 91.037)"><g transform="translate(0 38.562)"><path d="M408.64,686.883s102.2-21.642,210.411,4.809C619.051,691.693,508.435,710.93,408.64,686.883Z" transform="translate(-189.813 -242.555)" fill="#518b8f"/><path d="M137.726,676.463s84.1-21.643,173.137,4.809C310.863,681.273,219.843,700.51,137.726,676.463Z" transform="translate(-137.726 -240.552)" fill="#518b8f"/><g transform="translate(211.941)"><path d="M546.521,414.557s-9.219,2-9.619,6.413c0,4.409,8.016,16.433,13.227,18.837,2.805,1.2,6.813-8.417,6.413-9.619s-4.409,2.806-4.409,2.806l.4-5.611-3.207,1.6S551.732,417.362,546.521,414.557Z" transform="translate(-426.414 -191.8)" fill="#e5ae81"/><path d="M480.279,198s9.619,3.207,11.222-2.672,5.879-14.429,4.275-15.5-6.947,8.55-6.947,8.55l.535-8.016s3.207-10.688,0-15.5-2.138,7.481-4.275,12.291-5.879,11.757-8.016,13.36S480.279,198,480.279,198Z" transform="translate(-414.814 -143.583)" fill="#e5ae81"/><g transform="translate(71.624)"><path d="M503.128,180.108s-10.784,5.757-11.246,13.439,5.422,28.2,5.422,28.2S514.691,191,503.128,180.108Z" transform="translate(-489.377 -146.724)" fill="#323742"/><path d="M552.97,240.991c-12.821,21.885-36.568,24.253-47.3,19.337S485.181,240,490.1,229.264s5.552-19.357,6.3-33.783,14.7-21.535,14.7-21.535,25.672-12.691,47.1,7.812S552.97,240.991,552.97,240.991Z" transform="translate(-488.787 -144.793)" fill="#e5ae81"/><path d="M568.308,245.752s14.061-12.914,14.776-1.128S556.25,268.75,568.308,245.752Z" transform="translate(-503.489 -158.174)" fill="#da896f"/><path d="M551.24,207.47s.879,19.585-.754,28.343-8.262,26.944-34.295,31.151c-9.383-1.75-20.337-8.972-20.337-8.972a24.718,24.718,0,0,0,18.386,12.492c13.254,1.825,30.645-4.642,39.935-19.741,7.063-13.572,13.1-38.989,13.1-38.989Z" transform="translate(-490.146 -151.984)" fill="#da896f"/><path d="M533.366,181.691s-19.1,13.916-27.262,5.6S482.677,156.7,498.79,143.2s61.108,5.572,73.1,35a9.283,9.283,0,0,1-6.681,4.581s7.571,6.267,7.284,13.011c-1.05,5.631-10.707,26.163-10.707,26.163s-6.33,2.7-11.834,11.387l-3.4-2.577,11.645-25.989Z" transform="translate(-489.348 -138.777)" fill="#323742"/><path d="M516.014,143.12s-16.5-1.783-18.09,10.22c1.536,12.587,58.074,21.837,58.658,18.709s-24.451-18.155-21.831-18.314,23.231,10.807,29.339,19.714C563.029,168.72,550.539,148.911,516.014,143.12Z" transform="translate(-490.544 -139.594)"/><path d="M574.2,198.771s8.326-.389,7.22,8.144c-1.488,7.976-5.329,7.745-7.882,5.812s-17.9-15.962-11.419-14.268A27.047,27.047,0,0,0,574.2,198.771Z" transform="translate(-502.581 -150.225)"/><path d="M527.209,219.664s12.582,1.4,17.86,4.691c.061-2.781-7.855-7.716-10.709-8.287S527.209,219.664,527.209,219.664Z" transform="translate(-496.174 -153.627)" fill="#7e474a"/><path d="M509.608,215.666s-9.379-.421-13.625,1.383c.275-2.044,6.643-4.75,8.8-4.841S509.608,215.666,509.608,215.666Z" transform="translate(-490.171 -152.895)" fill="#7e474a"/><ellipse cx="3.175" cy="1.94" rx="3.175" ry="1.94" transform="translate(32.983 77.379) rotate(-79.435)" fill="#7e474a"/><path d="M506.228,225.554c-.321,1.725-1.436,2.963-2.489,2.766s-1.647-1.753-1.326-3.477,1.436-2.963,2.49-2.766S506.55,223.83,506.228,225.554Z" transform="translate(-491.39 -154.789)" fill="#7e474a"/><path d="M507.029,237.708l-15.1-6.395s.182,13.946,11.126,12.807C506.651,244,507.029,237.708,507.029,237.708Z" transform="translate(-489.391 -156.569)" fill="#da896f"/></g><path d="M470.736,443.089s22.712,167.536,22.712,188.378c-.8,0,4.008.8,4.008.8s-3.206,4.81-12.024,8.016c-6.413,3.207,19.239.8,22.445-1.6-.8-2.4-5.611-8.016-5.611-8.016,1.6-1.6-1.129-152.236-1.129-152.236s35.6,110.553,41.209,157.848h-.8l5.611,3.207L536.734,647.5s17.235,0,18.036-4.008c-.8-4.008-1.6-7.215-1.6-7.215s-23.915-176.353-25.785-191.584C517.5,436.676,470.736,443.089,470.736,443.089Z" transform="translate(-413.693 -196.818)"/><path d="M520.643,291.828s22.846,12.826,25.251,14.83,6.279,5.745,6.279,5.745l-13.36,16.033S515.3,382.41,526.522,416.077c0,0-26.186,11.757-56.647-1.6-1.227-8.054-7.482-11.223,0-96.727,1.069-6.947-2.138-19.238-2.138-19.238l40.081-4.81Z" transform="translate(-412.832 -168.203)" fill="#f2f6f3"/><path d="M515.057,281.408s1.6,8.016-2.805,14.028c.8.4,6.012,3.607,6.012,3.607l11.623-5.611-2-12.024Z" transform="translate(-421.675 -166.2)" fill="#da896f"/><path d="M505.878,296.791s-3.741,8.016-3.741,11.757c1.069,0,10.688-4.275,10.688-4.275l9.085,10.153s8.016-8.016,7.481-16.566c1.6,4.275-2.137,17.635-6.413,20.307-4.275-1.069-10.153-10.688-10.153-10.688l-14.963,5.878S500,303.2,505.878,296.791Z" transform="translate(-418.908 -169.158)" fill="#f16162"/><path d="M509.771,310.195l1.2,8.417,8.016-4.008-3.875-8.55Z" transform="translate(-421.198 -170.938)" fill="#f16162"/><path d="M508.924,316.084s-13.526,58.892-14.487,86.463l-10.1,10.027-7.018-14.414s19.665-65.328,27.706-84.46A9.4,9.4,0,0,0,508.924,316.084Z" transform="translate(-414.959 -172.409)" fill="#f16162"/><path d="M495.713,399.323c1.581-17.109,6-40.674,9.45-57.489l-6.842-2.824c-6.073,17.94-13.209,40.922-17.186,53.9C485.947,395,491.215,397.3,495.713,399.323Z" transform="translate(-415.692 -177.275)" fill="#f16162"/><path d="M469.082,439.036s30.461,10.688,57.181.8c.935,4.743,1.336,8.818,1.336,8.818s-30.194,8.817-56.647-1.6C470.418,447.052,469.082,439.036,469.082,439.036Z" transform="translate(-413.375 -196.506)" fill="#323742"/><path d="M478.033,450.71l-2-10.02,5.21,1.6,1.2,11.223S478.834,451.111,478.033,450.71Z" transform="translate(-414.71 -196.824)" fill="#283543"/><path d="M524.352,452.39l2.4-9.219-5.611.8-1.2,11.223S523.55,452.79,524.352,452.39Z" transform="translate(-423.154 -197.301)" fill="#283543"/><path d="M462.64,278.729s-26.453-4.008-36.073-42.484c0,0,30.461-27.255,42.485-28.858,1.6-4.008,0-13.627-8.016-12.826,0,0-37.675,11.223-60.922,40.081,0,0,19.239,55.311,60.922,71.342,7.215-5.611,4.543-27.255,4.543-27.255" transform="translate(-400.115 -149.493)" fill="#f2f6f3"/><path d="M566.921,316.639s30.06,31.263,36.473,55.311c0,0-24.85,28.056-52.1,33.667,0,0-5.611-6.413-1.6-12.825,2.4-3.207,20.842-12.024,26.453-23.247,1.6-4.81-19.239-33.667-29.66-36.874S566.921,316.639,566.921,316.639Z" transform="translate(-427.842 -172.974)" fill="#f2f6f3"/><path d="M501.755,256.954s12.826.535,18.971,3.741c0,0,.134,1.2.635,1.6.2-.4.5-2.705,1.1-3.707-.4,0-1.2,1.6-1.2,1.6a42.718,42.718,0,0,0-18.938-4.008l-.3-.2s-.6-1.1-.8-1a20.583,20.583,0,0,1-.5,3.607C501.02,258.09,501.755,256.954,501.755,256.954Z" transform="translate(-419.458 -161.118)" fill="#c48056"/></g><rect width="14.428" height="405.192" transform="translate(79.355 29.517)" fill="#5a4029"/><g transform="translate(24.047 54.633)"><rect width="14.428" height="17.214" transform="translate(55.308 39.013)" fill="#4a3622"/><path d="M309.087,230.071l-15.344-19.025H167.5v45.689H293.743L312.1,233.812v-3.741Z" transform="translate(-167.496 -207.305)" fill="#ff8d43"/><path d="M293.743,252.1H167.5V206.414H293.743L312.1,229.181Z" transform="translate(-167.496 -206.414)" fill="#ffd13a"/></g><g transform="translate(24.047 215.756)"><rect width="14.428" height="17.214" transform="translate(55.308 39.013)" fill="#4a3622"/><path d="M309.087,429.545,293.743,410.52H167.5V456.21H293.743L312.1,433.286v-3.741Z" transform="translate(-167.496 -406.779)" fill="#ff8d43"/><path d="M293.743,451.578H167.5V405.889H293.743L312.1,428.655Z" transform="translate(-167.496 -405.889)" fill="#ffd13a"/></g><g transform="translate(4.407 133.19)"><rect width="14.428" height="17.214" transform="translate(89.299 56.227) rotate(180)" fill="#4a3622"/><path d="M146.2,327.327,161.543,308.3H287.79v45.689H161.543l-18.361-22.923v-3.741Z" transform="translate(-143.182 -304.561)" fill="#ff8d43"/><path d="M161.543,349.36H287.79V303.671H161.543l-18.361,22.766Z" transform="translate(-143.182 -303.671)" fill="#ffd13a"/></g><text transform="translate(373.332 130.295)" fill="#f2f6f3" font-size="47" font-family="SegoeUI, Segoe UI"><tspan x="0" y="0">?</tspan></text><text transform="translate(248.401 38.69) rotate(-26.68)" fill="#f2f6f3" font-size="32" font-family="SegoeUI, Segoe UI"><tspan x="0" y="0">?</tspan></text></g><path d="M572.511,203.77s-3.345,22.753-9.172,14.673S572.511,203.77,572.511,203.77Z" transform="translate(-219.297 -112.711)" fill="#fff"/><path d="M579.633,134.3c-6.5-8.2-16.189-13.506-25.674-17.466a241.671,241.671,0,0,0-35.553-11.455l-.379-.091c2.731-4.305,7.51-6.98,12.34-8.3,6.144-1.675,12.919-1.281,19.163-.432a69.6,69.6,0,0,1,18.143,5.13c.473.2.885-.492.408-.7-10.61-4.579-22.778-7.034-34.326-5.489-6.491.869-13.094,4.168-16.5,9.6a94.253,94.253,0,0,0-16.8-2.826,39.56,39.56,0,0,0-8.239.426c-2.381.366-5.2.963-7.149,2.487-4.947,3.867-2.257,10.1.893,14.2,3.783,4.926,8.922,9.091,13.914,12.731A85.013,85.013,0,0,0,536.17,147.19c.51.083.728-.7.215-.779a85.536,85.536,0,0,1-30.708-11.394A83.978,83.978,0,0,1,492.355,124.9c-3.977-3.675-8.881-8.218-9.276-13.97-.513-7.456,10.835-7.941,15.89-7.9,6.028.045,12.006,1.388,17.854,2.795a15.272,15.272,0,0,0-1.927,7.094c-.267,10.063,9.478,17.569,17.277,22.039a72.893,72.893,0,0,0,31.832,9.3c4.644.275,10.089.592,14.442-1.334a5.479,5.479,0,0,0,3.052-3.2C582.193,137.742,580.789,135.756,579.633,134.3Zm-4.513,8.824a41.961,41.961,0,0,1-9.039.409,71.885,71.885,0,0,1-17.65-2.676c-10.809-2.988-22.743-8.665-29.364-18.076-3.323-4.724-4.443-10.585-1.918-15.919.137-.29.287-.571.441-.848l.6.145a233.6,233.6,0,0,1,36.06,11.67,85.036,85.036,0,0,1,14.38,7.647,53.1,53.1,0,0,1,6.462,5.153c2.189,2.031,5.522,4.917,5.747,8.047C581.046,141.522,577.254,142.688,575.12,143.122Z" transform="translate(-203.982 -91.806)" fill="#ffd13a"/><path d="M591.619,97.619l2.692-6.582.9,7.778,5.983,1.2-5.684,1.5,2.692,6.282-5.385-5.086-5.983,4.787,3.889-7.18-5.684-2.692Z" transform="translate(-223.728 -91.037)" fill="#f2f6f3"/><path d="M483.619,120.619l2.692-6.582.9,7.778,5.983,1.2-5.684,1.5,2.692,6.282-5.385-5.086-5.983,4.787,3.889-7.18-5.684-2.692Z" transform="translate(-202.963 -95.459)" fill="#f2f6f3"/><path d="M604.143,175.328l1.346-3.291.449,3.889,2.992.6-2.842.748,1.346,3.141-2.692-2.543-2.992,2.393,1.944-3.59-2.842-1.346Z" transform="translate(-226.768 -106.61)" fill="#f2f6f3" stroke="rgba(0,0,0,0)" stroke-width="1"/></g></g></g></svg>