<svg xmlns="http://www.w3.org/2000/svg" xmlns:xlink="http://www.w3.org/1999/xlink" width="1280" height="800" viewBox="0 0 1280 800"><defs><clipPath id="a"><rect width="1280" height="800" fill="#fff"/></clipPath><clipPath id="c"><rect width="1280" height="800"/></clipPath></defs><g id="b" clip-path="url(#c)"><rect width="1280" height="800" fill="#fff"/><g clip-path="url(#a)"><path d="M0,0H998l276.925,788.533S318.731,1086.272,0,889.139,0,0,0,0Z" transform="translate(-7)" fill="#fff"/><path d="M0,0H739V800H513C229.678,800,128.25,480.506,0,280.506S0,0,0,0Z" transform="translate(541)" fill="#7fbcbe"/></g><g transform="translate(470 3)"><path d="M408.64,688.868s126.526-26.794,260.495,5.954C669.135,694.822,532.189,718.638,408.64,688.868Z" fill="#518b8f"/><path d="M137.726,678.448s104.112-26.794,214.349,5.954C352.075,684.4,239.389,708.219,137.726,678.448Z" fill="#518b8f"/><path d="M548.811,414.557S537.4,417.038,536.9,422.5c0,5.458,9.924,20.344,16.375,23.321,3.473,1.489,8.435-10.42,7.939-11.909s-5.458,3.474-5.458,3.474l.5-6.947-3.97,1.985S555.262,418.03,548.811,414.557Z" fill="#e5ae81"/><path d="M481.162,206.15s11.908,3.97,13.893-3.308,7.278-17.863,5.293-19.186-8.6,10.585-8.6,10.585l.662-9.924s3.97-13.232,0-19.186-2.647,9.262-5.293,15.217-7.278,14.555-9.924,16.54S481.162,206.15,481.162,206.15Z" fill="#e5ae81"/><path d="M505.811,180.108s-13.351,7.127-13.923,16.638S498.6,231.66,498.6,231.66,520.126,193.6,505.811,180.108Z" fill="#323742"/><path d="M568.247,257.874c-15.873,27.094-45.272,30.026-58.564,23.94s-25.36-25.167-19.275-38.458,6.874-23.964,7.8-41.824,18.2-26.661,18.2-26.661,31.783-15.712,58.3,9.672S568.247,257.874,568.247,257.874Z" fill="#e5ae81"/><path d="M569.036,247.2s17.408-15.988,18.293-1.4S554.108,275.674,569.036,247.2Z" fill="#da896f"/><path d="M564.424,207.47s1.088,24.247-.934,35.09-10.229,33.357-42.458,38.566c-11.617-2.167-25.178-11.108-25.178-11.108a30.6,30.6,0,0,0,22.763,15.466c16.409,2.259,37.939-5.747,49.44-24.44,8.744-16.8,16.216-48.269,16.216-48.269Z" fill="#da896f"/><path d="M543.283,191.906s-23.65,17.228-33.751,6.929-29-37.869-9.054-54.586,75.654,6.9,90.5,43.328c-3.407,5.376-8.271,5.671-8.271,5.671s9.373,7.759,9.018,16.108c-1.3,6.971-13.255,32.391-13.255,32.391s-7.837,3.347-14.651,14.1l-4.214-3.19L574.02,220.48Z" fill="#323742"/><path d="M520.32,143.142s-20.426-2.207-22.4,12.653c1.9,15.583,71.9,27.035,72.62,23.162s-30.271-22.476-27.028-22.673,28.761,13.379,36.322,24.407C578.526,174.836,563.063,150.312,520.32,143.142Z"/><path d="M577.448,198.879s10.308-.482,8.939,10.083c-1.842,9.875-6.6,9.589-9.758,7.2s-22.161-19.762-14.137-17.664A33.484,33.484,0,0,0,577.448,198.879Z"/><path d="M527.209,220.533s15.577,1.734,22.111,5.808c.076-3.443-9.725-9.553-13.258-10.26S527.209,220.533,527.209,220.533Z" fill="#7e474a"/><path d="M512.851,216.489s-11.612-.521-16.868,1.712c.34-2.531,8.224-5.881,10.894-5.993S512.851,216.489,512.851,216.489Z" fill="#7e474a"/><ellipse cx="3.931" cy="2.402" rx="3.931" ry="2.402" transform="translate(529.622 234.575) rotate(-79.435)" fill="#7e474a"/><path d="M507.157,226.386c-.4,2.135-1.778,3.668-3.082,3.424s-2.039-2.17-1.641-4.3,1.778-3.668,3.083-3.424S507.555,224.252,507.157,226.386Z" fill="#7e474a"/><path d="M510.624,239.23l-18.7-7.917s.225,17.265,13.774,15.856C510.156,247.016,510.624,239.23,510.624,239.23Z" fill="#da896f"/><path d="M470.736,443.667s28.118,207.414,28.118,233.217c-.992,0,4.962.992,4.962.992s-3.969,5.955-14.886,9.924c-7.939,3.97,23.818.993,27.787-1.985-.992-2.977-6.946-9.924-6.946-9.924,1.984-1.985-1.4-188.473-1.4-188.473s44.071,136.868,51.018,195.42H558.4l6.947,3.97-12.9,9.924s21.337,0,22.329-4.962c-.992-4.962-1.984-8.932-1.984-8.932s-29.607-218.33-31.923-237.186C528.626,435.728,470.736,443.667,470.736,443.667Z"/><path d="M533.588,291.828s28.284,15.879,31.261,18.36,7.774,7.112,7.774,7.112l-16.54,19.849s-29.111,66.822-15.217,108.5c0,0-32.419,14.555-70.13-1.985-1.519-9.971-9.263-13.894,0-119.751,1.323-8.6-2.647-23.817-2.647-23.817l49.621-5.955Z" fill="#f2f6f3"/><path d="M515.725,281.408s1.985,9.924-3.473,17.367c.992.5,7.443,4.466,7.443,4.466l14.39-6.947L531.6,281.408Z" fill="#da896f"/><path d="M507.786,296.791s-4.631,9.924-4.631,14.555c1.323,0,13.232-5.293,13.232-5.293l11.247,12.57s9.924-9.924,9.262-20.509c1.985,5.293-2.646,21.833-7.939,25.141-5.293-1.323-12.57-13.232-12.57-13.232L497.862,317.3S500.508,304.73,507.786,296.791Z" fill="#f16162"/><path d="M509.771,311.18l1.489,10.42,9.924-4.962-4.8-10.586Z" fill="#f16162"/><path d="M516.446,316.651S499.7,389.561,498.511,423.7l-12.5,12.414-8.689-17.845s24.346-80.878,34.3-104.564C514.5,316.275,516.446,316.651,516.446,316.651Z" fill="#f16162"/><path d="M499.183,413.679c1.957-21.182,7.433-50.355,11.7-71.173l-8.471-3.5c-7.519,22.21-16.353,50.663-21.277,66.733C487.092,408.325,493.615,411.178,499.183,413.679Z" fill="#f16162"/><path d="M469.082,439.036s37.711,13.232,70.792.992c1.158,5.872,1.654,10.917,1.654,10.917s-37.381,10.916-70.131-1.985C470.736,448.96,469.082,439.036,469.082,439.036Z" fill="#323742"/><path d="M478.51,453.1l-2.481-12.4,6.45,1.985,1.489,13.894S479.5,453.591,478.51,453.1Z" fill="#283543"/><path d="M525.4,454.584l2.977-11.413-6.947.992-1.488,13.894S524.409,455.08,525.4,454.584Z" fill="#283543"/><path d="M477.523,298.775s-32.75-4.962-44.659-52.6c0,0,37.712-33.742,52.6-35.727,1.985-4.962,0-16.871-9.924-15.879,0,0-46.643,13.894-75.423,49.621,0,0,23.818,68.476,75.423,88.324,8.932-6.947,5.624-33.742,5.624-33.742" fill="#f2f6f3"/><path d="M572.3,316.639s37.215,38.7,45.155,68.476c0,0-30.765,34.734-64.507,41.681,0,0-6.947-7.939-1.985-15.878,2.977-3.97,25.8-14.886,32.75-28.78,1.984-5.955-23.818-41.681-36.72-45.651S572.3,316.639,572.3,316.639Z" fill="#f2f6f3"/><path d="M502,257.425s15.879.662,23.487,4.631c0,0,.166,1.489.786,1.985.248-.5.62-3.349,1.364-4.59-.5,0-1.488,1.985-1.488,1.985a52.887,52.887,0,0,0-23.446-4.962l-.372-.248s-.744-1.365-.992-1.241a25.484,25.484,0,0,1-.621,4.466C501.092,258.831,502,257.425,502,257.425Z" fill="#c48056"/><rect width="17.862" height="501.638" transform="translate(235.969 175.321)" fill="#5a4029"/><rect width="17.862" height="21.312" transform="translate(235.969 254.714)" fill="#4a3622"/><path d="M342.789,234.6l-19-23.554H167.5V267.61h156.3l22.731-28.38V234.6Z" fill="#ff8d43"/><path d="M323.793,262.979H167.5V206.415h156.3L346.525,234.6Z" fill="#ffd13a"/><rect width="17.862" height="21.312" transform="translate(235.969 454.188)" fill="#4a3622"/><path d="M342.789,434.074l-19-23.554H167.5v56.565h156.3l22.731-28.38v-4.631Z" fill="#ff8d43"/><path d="M323.793,462.454H167.5V405.889h156.3l22.731,28.185Z" fill="#ffd13a"/><rect width="17.862" height="21.312" transform="translate(253.738 373.282) rotate(180)" fill="#4a3622"/><path d="M146.917,331.856l19-23.554h156.3v56.565h-156.3l-22.731-28.38v-4.631Z" fill="#ff8d43"/><path d="M165.914,360.235h156.3V303.671h-156.3l-22.731,28.185Z" fill="#ffd13a"/><text transform="translate(599.922 300.947)" fill="#f2f6f3" font-size="59.545" font-family="SegoeUI, Segoe UI"><tspan x="0" y="0">?</tspan></text><text transform="translate(445.554 187.274) rotate(-26.68)" fill="#f2f6f3" font-size="40.487" font-family="SegoeUI, Segoe UI"><tspan x="0" y="0">?</tspan></text><path d="M575.014,203.77s-4.141,28.169-11.355,18.165S575.014,203.77,575.014,203.77Z" fill="#fff"/><path d="M602.792,143.643c-8.041-10.147-20.042-16.721-31.785-21.623a299.2,299.2,0,0,0-44.015-14.182l-.469-.113c3.381-5.33,9.3-8.641,15.277-10.271,7.606-2.074,15.994-1.586,23.724-.535a86.161,86.161,0,0,1,22.461,6.351c.586.252,1.1-.609.505-.864-13.136-5.669-28.2-8.708-42.5-6.795-8.036,1.076-16.211,5.16-20.431,11.882a116.687,116.687,0,0,0-20.794-3.5,48.977,48.977,0,0,0-10.2.527c-2.948.453-6.437,1.192-8.851,3.079-6.124,4.788-2.794,12.505,1.106,17.584,4.684,6.1,11.046,11.255,17.226,15.761A105.249,105.249,0,0,0,548.983,159.6c.631.1.9-.861.266-.964a105.9,105.9,0,0,1-38.017-14.106,103.971,103.971,0,0,1-16.493-12.522c-4.923-4.55-11-10.174-11.484-17.295-.635-9.231,13.414-9.831,19.672-9.783,7.463.056,14.864,1.718,22.1,3.46a18.907,18.907,0,0,0-2.386,8.783c-.33,12.458,11.734,21.751,21.39,27.285a90.243,90.243,0,0,0,39.409,11.509c5.749.341,12.49.733,17.88-1.652a6.783,6.783,0,0,0,3.779-3.958C605.961,147.907,604.223,145.448,602.792,143.643Zm-5.587,10.924a51.948,51.948,0,0,1-11.191.506,89,89,0,0,1-21.851-3.313c-13.382-3.7-28.156-10.728-36.353-22.379-4.114-5.848-5.5-13.1-2.374-19.708.17-.359.355-.707.546-1.05l.744.179a289.2,289.2,0,0,1,44.643,14.448,105.276,105.276,0,0,1,17.8,9.467,65.74,65.74,0,0,1,8,6.379c2.71,2.515,6.836,6.087,7.115,9.963C604.541,152.586,599.846,154.03,597.205,154.567Z" fill="#ffd13a"/><path d="M593.185,99.185l3.333-8.148,1.111,9.63,7.407,1.481L598,104l3.333,7.778-6.667-6.3-7.407,5.926,4.815-8.889-7.037-3.333Z" fill="#f2f6f3"/><path d="M485.185,122.185l3.333-8.148,1.111,9.63,7.407,1.481L490,127l3.333,7.778-6.667-6.3-7.407,5.926,4.815-8.889-7.037-3.333Z" fill="#f2f6f3"/><path d="M604.926,176.111l1.667-4.074.555,4.815,3.7.741-3.519.926L609,182.407l-3.333-3.148-3.7,2.963,2.407-4.444-3.518-1.667Z" fill="#f2f6f3" stroke="rgba(0,0,0,0)" stroke-width="1"/></g></g></svg>