<svg xmlns="http://www.w3.org/2000/svg" xmlns:xlink="http://www.w3.org/1999/xlink" width="320" height="568" viewBox="0 0 320 568"><defs><clipPath id="b"><rect width="320" height="568"/></clipPath></defs><g id="a" clip-path="url(#b)"><rect width="320" height="568" fill="#fff"/><path d="M3.608,0H789.387V840.008H549.081c-301.257,0-409.1-335.471-545.473-545.473S3.608,0,3.608,0Z" transform="translate(157)" fill="#7fbcbe"/><g transform="translate(-12.09 30.425)"><g transform="translate(137.726 91.037)"><g transform="translate(0 15.766)"><path d="M408.64,681.954s41.785-8.849,86.029,1.966C494.669,683.921,449.442,691.786,408.64,681.954Z" transform="translate(-319.171 -500.287)" fill="#518b8f"/><path d="M137.726,671.534s34.383-8.849,70.789,1.966C208.515,673.5,171.3,681.366,137.726,671.534Z" transform="translate(-137.726 -493.308)" fill="#518b8f"/><g transform="translate(86.654)"><path d="M540.835,414.557s-3.769.819-3.933,2.622c0,1.8,3.277,6.719,5.408,7.7,1.147.492,2.786-3.441,2.622-3.933s-1.8,1.147-1.8,1.147l.164-2.294-1.311.656S542.965,415.7,540.835,414.557Z" transform="translate(-491.728 -323.481)" fill="#e5ae81"/><path d="M478.084,177.769s3.933,1.311,4.588-1.092,2.4-5.9,1.748-6.336-2.84,3.5-2.84,3.5l.219-3.277s1.311-4.37,0-6.336-.874,3.059-1.748,5.025-2.4,4.807-3.277,5.462S478.084,177.769,478.084,177.769Z" transform="translate(-451.319 -155.519)" fill="#e5ae81"/><g transform="translate(29.284)"><path d="M496.465,180.108s-4.409,2.354-4.6,5.495,2.217,11.53,2.217,11.53S501.192,184.563,496.465,180.108Z" transform="translate(-490.843 -166.459)" fill="#323742"/><path d="M515.029,199.063c-5.242,8.948-14.951,9.916-19.341,7.906s-8.375-8.311-6.366-12.7,2.27-7.914,2.576-13.812,6.01-8.8,6.01-8.8,10.5-5.189,19.255,3.194S515.029,199.063,515.029,199.063Z" transform="translate(-488.787 -159.731)" fill="#e5ae81"/><path d="M566.5,242.152s5.749-5.28,6.041-.461S561.571,251.555,566.5,242.152Z" transform="translate(-539.999 -206.345)" fill="#da896f"/><path d="M518.5,207.47s.359,8.008-.308,11.588-3.378,11.016-14.022,12.736c-3.837-.716-8.315-3.668-8.315-3.668a10.106,10.106,0,0,0,7.517,5.108,17.215,17.215,0,0,0,16.328-8.071c2.888-5.549,5.355-15.941,5.355-15.941Z" transform="translate(-493.52 -184.784)" fill="#da896f"/><path d="M508.736,156.323s-7.81,5.69-11.146,2.288-9.578-12.506-2.99-18.027,24.985,2.278,29.887,14.309a3.8,3.8,0,0,1-2.731,1.873s3.1,2.562,2.978,5.32c-.429,2.3-4.377,10.7-4.377,10.7a12.209,12.209,0,0,0-4.839,4.656l-1.392-1.054,4.761-10.626Z" transform="translate(-490.738 -138.777)" fill="#323742"/><path d="M505.32,143.064s-6.746-.729-7.4,4.179c.628,5.146,23.744,8.928,23.983,7.649s-10-7.423-8.926-7.488,9.5,4.418,12,8.06C524.543,153.531,519.436,145.432,505.32,143.064Z" transform="translate(-494.907 -141.623)"/><path d="M566.119,198.5a2.748,2.748,0,0,1,2.952,3.33c-.608,3.261-2.179,3.167-3.223,2.376s-7.319-6.526-4.669-5.834A11.058,11.058,0,0,0,566.119,198.5Z" transform="translate(-536.838 -178.655)"/><path d="M527.209,217.507s5.144.573,7.3,1.918c.025-1.137-3.212-3.155-4.378-3.388S527.209,217.507,527.209,217.507Z" transform="translate(-514.52 -190.507)" fill="#7e474a"/><path d="M501.554,213.62s-3.835-.172-5.571.565c.112-.836,2.716-1.942,3.6-1.979S501.554,213.62,501.554,213.62Z" transform="translate(-493.607 -187.956)" fill="#7e474a"/><ellipse cx="1.298" cy="0.793" rx="1.298" ry="0.793" transform="translate(13.485 31.637) rotate(-79.435)" fill="#7e474a"/><path d="M503.921,223.486c-.131.705-.587,1.211-1.018,1.131s-.673-.717-.542-1.421.587-1.211,1.018-1.131S504.053,222.782,503.921,223.486Z" transform="translate(-497.855 -194.554)" fill="#7e474a"/><path d="M498.1,233.928l-6.175-2.615s.074,5.7,4.549,5.236C497.946,236.5,498.1,233.928,498.1,233.928Z" transform="translate(-490.889 -200.753)" fill="#da896f"/></g><path d="M470.736,441.653s9.286,68.5,9.286,77.02a14.206,14.206,0,0,0,1.639.328,10.2,10.2,0,0,1-4.916,3.277c-2.622,1.311,7.866.328,9.177-.656a17.493,17.493,0,0,0-2.294-3.277c.655-.656-.462-62.243-.462-62.243s14.554,45.2,16.849,64.537h-.328l2.294,1.311-4.261,3.277s7.047,0,7.374-1.639c-.328-1.639-.655-2.95-.655-2.95s-9.778-72.1-10.543-78.331C489.854,439.032,470.736,441.653,470.736,441.653Z" transform="translate(-447.413 -340.964)"/><path d="M488.5,291.828s9.341,5.244,10.324,6.063,2.567,2.349,2.567,2.349l-5.462,6.555s-9.614,22.068-5.025,35.833a30.529,30.529,0,0,1-23.16-.656c-.5-3.293-3.059-4.589,0-39.548.437-2.84-.874-7.866-.874-7.866l16.387-1.967Z" transform="translate(-444.416 -241.283)" fill="#f2f6f3"/><path d="M513.4,281.408a8.064,8.064,0,0,1-1.147,5.735c.328.164,2.458,1.475,2.458,1.475l4.752-2.294-.819-4.916Z" transform="translate(-475.219 -234.304)" fill="#da896f"/><path d="M501.139,296.791s-1.529,3.277-1.529,4.807a45.34,45.34,0,0,0,4.37-1.748L507.694,304s3.277-3.277,3.059-6.773c.656,1.748-.874,7.21-2.622,8.3-1.748-.437-4.151-4.37-4.151-4.37l-6.118,2.4A16.584,16.584,0,0,1,501.139,296.791Z" transform="translate(-465.581 -244.607)" fill="#f16162"/><path d="M509.771,307.746l.492,3.441,3.277-1.639-1.584-3.5Z" transform="translate(-473.557 -250.81)" fill="#f16162"/><path d="M490.243,314.675s-5.53,24.079-5.923,35.351l-4.128,4.1-2.87-5.893s8.04-26.71,11.328-34.532A3.843,3.843,0,0,0,490.243,314.675Z" transform="translate(-451.825 -255.932)" fill="#f16162"/><path d="M487.095,363.669c.646-7,2.455-16.63,3.864-23.5l-2.8-1.155c-2.483,7.335-5.4,16.731-7.027,22.039C483.1,361.9,485.256,362.844,487.095,363.669Z" transform="translate(-454.377 -272.883)" fill="#f16162"/><path d="M469.082,439.036s12.454,4.37,23.379.328c.382,1.939.546,3.605.546,3.605s-12.345,3.605-23.161-.656C469.628,442.313,469.082,439.036,469.082,439.036Z" transform="translate(-446.306 -339.876)" fill="#323742"/><path d="M476.848,444.787l-.819-4.1,2.13.656.492,4.588S477.176,444.951,476.848,444.787Z" transform="translate(-450.958 -340.983)" fill="#283543"/><path d="M521.745,446.94l.983-3.769-2.294.328-.491,4.589S521.418,447.1,521.745,446.94Z" transform="translate(-480.37 -342.645)" fill="#283543"/><path d="M425.679,228.946s-10.816-1.639-14.749-17.37c0,0,12.454-11.143,17.37-11.8.656-1.639,0-5.572-3.277-5.244,0,0-15.4,4.589-24.908,16.387,0,0,7.866,22.614,24.908,29.169,2.95-2.294,1.857-11.143,1.857-11.143" transform="translate(-400.115 -176.107)" fill="#f2f6f3"/><path d="M553.567,316.639s12.29,12.782,14.912,22.614c0,0-10.16,11.471-21.3,13.765,0,0-2.294-2.622-.656-5.244.983-1.311,8.521-4.916,10.816-9.5.655-1.967-7.866-13.765-12.127-15.076S553.567,316.639,553.567,316.639Z" transform="translate(-496.703 -257.9)" fill="#f2f6f3"/><path d="M501.143,255.785s5.244.219,7.757,1.529c0,0,.055.492.26.656a9.439,9.439,0,0,1,.45-1.516c-.164,0-.491.656-.491.656a17.466,17.466,0,0,0-7.743-1.639l-.123-.082s-.246-.451-.328-.41a8.418,8.418,0,0,1-.205,1.475C500.843,256.25,501.143,255.785,501.143,255.785Z" transform="translate(-467.495 -216.602)" fill="#c48056"/></g><rect width="5.899" height="165.666" transform="translate(32.445 12.068)" fill="#5a4029"/><g transform="translate(9.832 22.337)"><rect width="5.899" height="7.038" transform="translate(22.613 15.951)" fill="#4a3622"/><path d="M225.387,218.824l-6.274-7.779H167.5v18.68h51.617l7.507-9.372v-1.529Z" transform="translate(-167.496 -209.516)" fill="#ff8d43"/><path d="M219.113,225.095H167.5v-18.68h51.617l7.507,9.308Z" transform="translate(-167.496 -206.414)" fill="#ffd13a"/></g><g transform="translate(9.832 88.214)"><rect width="5.899" height="7.038" transform="translate(22.613 15.951)" fill="#4a3622"/><path d="M225.387,418.3l-6.274-7.779H167.5V429.2h51.617l7.507-9.372V418.3Z" transform="translate(-167.496 -408.991)" fill="#ff8d43"/><path d="M219.113,424.569H167.5v-18.68h51.617l7.507,9.308Z" transform="translate(-167.496 -405.889)" fill="#ffd13a"/></g><g transform="translate(1.802 54.456)"><rect width="5.899" height="7.038" transform="translate(36.511 22.989) rotate(180)" fill="#4a3622"/><path d="M144.416,316.081l6.273-7.779h51.617v18.68H150.689l-7.507-9.372v-1.53Z" transform="translate(-143.182 -306.773)" fill="#ff8d43"/><path d="M150.689,322.351h51.617v-18.68H150.689l-7.507,9.308Z" transform="translate(-143.182 -303.671)" fill="#ffd13a"/></g><text transform="translate(152.64 51.42)" fill="#f2f6f3" font-size="18" font-family="SegoeUI, Segoe UI"><tspan x="0" y="0">?</tspan></text><text transform="translate(100.973 14.648) rotate(-26.68)" fill="#f2f6f3" font-size="12" font-family="SegoeUI, Segoe UI"><tspan x="0" y="0">?</tspan></text></g><path d="M566.294,203.77s-1.368,9.3-3.75,6S566.294,203.77,566.294,203.77Z" transform="translate(-421.879 -166.54)" fill="#fff"/><path d="M522.118,111.09c-2.656-3.351-6.619-5.522-10.5-7.141a98.807,98.807,0,0,0-14.536-4.684l-.155-.037a8.532,8.532,0,0,1,5.045-3.392,20.018,20.018,0,0,1,7.835-.177,28.454,28.454,0,0,1,7.418,2.1c.194.083.362-.2.167-.285a27.057,27.057,0,0,0-14.034-2.244,9.464,9.464,0,0,0-6.747,3.924A38.536,38.536,0,0,0,489.746,98a16.174,16.174,0,0,0-3.369.174,6.414,6.414,0,0,0-2.923,1.017c-2.022,1.581-.923,4.13.365,5.807a27.6,27.6,0,0,0,5.689,5.205,34.758,34.758,0,0,0,14.839,6.162c.208.034.3-.284.088-.318a34.972,34.972,0,0,1-12.555-4.659,34.336,34.336,0,0,1-5.447-4.135c-1.626-1.5-3.631-3.36-3.793-5.712-.21-3.049,4.43-3.247,6.5-3.231a32.515,32.515,0,0,1,7.3,1.143,6.244,6.244,0,0,0-.788,2.9c-.109,4.114,3.875,7.183,7.064,9.011a29.8,29.8,0,0,0,13.015,3.8c1.9.113,4.125.242,5.9-.546a2.24,2.24,0,0,0,1.248-1.307C523.165,112.5,522.591,111.686,522.118,111.09Zm-1.845,3.608a17.156,17.156,0,0,1-3.7.167,29.391,29.391,0,0,1-7.216-1.094c-4.419-1.222-9.3-3.543-12.006-7.391a6.41,6.41,0,0,1-.784-6.509c.056-.119.117-.233.18-.347l.246.059a95.51,95.51,0,0,1,14.743,4.771,34.768,34.768,0,0,1,5.879,3.126,21.711,21.711,0,0,1,2.642,2.107c.9.831,2.258,2.01,2.35,3.29C522.7,114.044,521.145,114.521,520.273,114.7Z" transform="translate(-368.53 -93.717)" fill="#ffd13a"/><path d="M587.728,93.728l1.1-2.691.367,3.18,2.446.489-2.324.612,1.1,2.569-2.2-2.079-2.446,1.957,1.59-2.936-2.324-1.1Z" transform="translate(-437.312 -91.037)" fill="#f2f6f3"/><path d="M479.728,116.728l1.1-2.691.367,3.18,2.446.489-2.324.612,1.1,2.569-2.2-2.079-2.446,1.957,1.59-2.936-2.324-1.1Z" transform="translate(-364.979 -106.441)" fill="#f2f6f3"/><path d="M602.2,173.382l.55-1.345.183,1.59,1.223.245-1.162.306.55,1.284-1.1-1.04-1.223.979.8-1.468-1.162-.55Z" transform="translate(-447.904 -145.287)" fill="#f2f6f3" stroke="rgba(0,0,0,0)" stroke-width="1"/></g></g></g></svg>