<svg xmlns="http://www.w3.org/2000/svg" width="135.194" height="51.986" viewBox="0 0 135.194 51.986"><g transform="translate(-505.806 -487)"><g transform="translate(349 243)"><g transform="translate(193.443 259.227) rotate(90)"><path d="M21.111,36.759,6.155,35.321,0,3.624,24.5,0Z" transform="translate(0 36.637) rotate(-90)" fill="#ffd13a"/><path d="M3.624,24.505v0h0L0,0,36.759,3.394,35.32,18.35ZM8.773,3.634a3.76,3.76,0,1,0,3.761,3.76A3.764,3.764,0,0,0,8.773,3.634Z" fill="#f16162"/></g><path d="M20.6-28.793a.963.963,0,0,1,.854.5,2.584,2.584,0,0,1,.312,1.375,3.831,3.831,0,0,1-.792,2.583,17.722,17.722,0,0,1-3.916,3.624,8.583,8.583,0,0,1-4.874,1.416q-8.5,0-8.5-11.956,0-1.833.125-3.708H2.189A2.336,2.336,0,0,1,.5-35.417a2.057,2.057,0,0,1-.437-1.458q0-2.333,1.875-2.333H4.313a40.544,40.544,0,0,1,2.166-8.374A18.892,18.892,0,0,1,10-53.622a6,6,0,0,1,4.437-2.25,3.116,3.116,0,0,1,2.749,1.541,6.985,6.985,0,0,1,1,3.874q0,6.457-5.416,11.248h4.666a1.318,1.318,0,0,1,.958.292,1.533,1.533,0,0,1,.292,1.083q0,2.875-4.707,2.875H8.9q-.083,2.083-.083,3.249,0,4.333,1.021,6.082a3.465,3.465,0,0,0,3.229,1.75,4.972,4.972,0,0,0,3.166-1.083,25.276,25.276,0,0,0,3.249-3.249A1.462,1.462,0,0,1,20.6-28.793Zm-7.29-23.08q-.625,0-1.4,1.562a22.227,22.227,0,0,0-1.458,4.333,58.079,58.079,0,0,0-1.146,6.145A14.229,14.229,0,0,0,13-44.6a11.568,11.568,0,0,0,1.229-4.812Q14.228-51.873,13.312-51.873ZM23.518-19.294a5.066,5.066,0,0,1-4.124-1.875,7.493,7.493,0,0,1-1.541-4.916A13.544,13.544,0,0,1,19.394-32.4a13.158,13.158,0,0,1,4.1-4.791A9.254,9.254,0,0,1,28.934-39a1.622,1.622,0,0,1,1.229.354,2.993,2.993,0,0,1,.521,1.271,9.781,9.781,0,0,1,1.833-.167q2.041,0,2.041,1.458a31.257,31.257,0,0,1-.625,4.166,40.436,40.436,0,0,0-.958,6.666,1.512,1.512,0,0,0,.312,1,1.008,1.008,0,0,0,.812.375A3.166,3.166,0,0,0,36.016-24.9a35.634,35.634,0,0,0,3.041-3.312,1.462,1.462,0,0,1,1.125-.583.963.963,0,0,1,.854.5,2.584,2.584,0,0,1,.312,1.375,3.831,3.831,0,0,1-.792,2.583,20.987,20.987,0,0,1-3.624,3.583,6.179,6.179,0,0,1-3.708,1.458,3.891,3.891,0,0,1-2.52-.937,5.712,5.712,0,0,1-1.729-2.562Q26.809-19.294,23.518-19.294Zm1.5-4.208a2.286,2.286,0,0,0,1.75-1.083,7.024,7.024,0,0,0,1.208-2.875l1.541-7.665a5.046,5.046,0,0,0-3.229,1.312,8.84,8.84,0,0,0-2.354,3.354,11.288,11.288,0,0,0-.875,4.416,2.951,2.951,0,0,0,.521,1.916A1.77,1.77,0,0,0,25.018-23.5Zm31.536-5.291a.963.963,0,0,1,.854.5,2.584,2.584,0,0,1,.312,1.375,3.831,3.831,0,0,1-.792,2.583,15.219,15.219,0,0,1-4.353,3.458,12.076,12.076,0,0,1-6.02,1.583,9.276,9.276,0,0,1-6.79-2.375,8.7,8.7,0,0,1-2.416-6.5,12.055,12.055,0,0,1,1.208-5.353,9.892,9.892,0,0,1,3.354-3.937,8.434,8.434,0,0,1,4.853-1.458,5.279,5.279,0,0,1,3.874,1.437,5.221,5.221,0,0,1,1.458,3.9,6.736,6.736,0,0,1-2.062,4.937q-2.062,2.062-6.978,3.27Q44.1-23.46,47.014-23.46a9.111,9.111,0,0,0,4.27-1.312,14.1,14.1,0,0,0,4.145-3.437A1.462,1.462,0,0,1,56.554-28.793Zm-10.5-6.041a3.053,3.053,0,0,0-2.6,1.791A8.35,8.35,0,0,0,42.39-28.71v.083a9.466,9.466,0,0,0,3.874-1.75,3.438,3.438,0,0,0,1.416-2.708,1.811,1.811,0,0,0-.437-1.271A1.528,1.528,0,0,0,46.056-34.834Zm29.12,2.666a1.462,1.462,0,0,1,.417-.042,1.155,1.155,0,0,1,.958.417,1.75,1.75,0,0,1,.333,1.125,3.535,3.535,0,0,1-.5,2.021,2.83,2.83,0,0,1-1.5,1.062,13.088,13.088,0,0,1-4.083.625,11.7,11.7,0,0,1-3.458-.5q-1.208,1.958-2.666,4.041A14.162,14.162,0,0,1,61.8-20.169a4.57,4.57,0,0,1-2.75.875,3.153,3.153,0,0,1-2.687-1.333,8.455,8.455,0,0,1-1.229-4.208q-.5-5.832-.5-10.207V-36.5a2.372,2.372,0,0,1,.75-1.916,3.471,3.471,0,0,1,2.125-.542,2.307,2.307,0,0,1,1.6.479,2.1,2.1,0,0,1,.521,1.6q0,4.791.583,12.456,2.5-3.708,3.749-5.916a6.183,6.183,0,0,1-.625-2.875,6.41,6.41,0,0,1,.625-2.75,5.766,5.766,0,0,1,1.708-2.166,3.925,3.925,0,0,1,2.458-.833,2.482,2.482,0,0,1,1.958.854,3.648,3.648,0,0,1,.75,2.479,11.432,11.432,0,0,1-1,4.291,29.664,29.664,0,0,0,4.208-.625ZM80.3-19.294a7.038,7.038,0,0,1-4.187-1.229,7.632,7.632,0,0,1-2.6-3.229,10.587,10.587,0,0,1-.875-4.291,12.911,12.911,0,0,1,1.187-5.645,9.585,9.585,0,0,1,3.229-3.874,7.933,7.933,0,0,1,4.582-1.4,7.133,7.133,0,0,1,4.208,1.229A7.575,7.575,0,0,1,88.464-34.5a10.587,10.587,0,0,1,.875,4.291,12.723,12.723,0,0,1-1.208,5.645,9.674,9.674,0,0,1-3.27,3.874A7.963,7.963,0,0,1,80.3-19.294Zm.458-4.5a2.823,2.823,0,0,0,2.4-1.541,8.453,8.453,0,0,0,.979-4.5,5.937,5.937,0,0,0-.833-3.458,2.418,2.418,0,0,0-2-1.166,2.883,2.883,0,0,0-2.479,1.521,8.436,8.436,0,0,0-.979,4.52,5.906,5.906,0,0,0,.833,3.5A2.505,2.505,0,0,0,80.757-23.794Z" transform="translate(201.745 315.099)" fill="#323742"/></g><text transform="translate(572 510)" fill="#7fbcbe" font-size="10.499" font-family="Pacifico-Regular, Pacifico" baseline-shift="-5.999400079342301"><tspan x="0" y="0">Careers Portal</tspan></text></g></svg>