<svg xmlns="http://www.w3.org/2000/svg" width="19.062" height="18.155" viewBox="0 0 19.062 18.155"><g transform="translate(-3.6 -6.5)"><g transform="translate(3.6 6.5)"><path d="M36.8,16.688a5.094,5.094,0,1,0-5.1-5.1A5.1,5.1,0,0,0,36.8,16.688Zm0-8.858a3.756,3.756,0,1,1-3.756,3.756A3.767,3.767,0,0,1,36.8,7.83Z" transform="translate(-27.302 -6.5)" fill="#999"/><path d="M4.273,84.374H21.989a.668.668,0,0,0,.673-.673,6.409,6.409,0,0,0-6.4-6.4H10a6.409,6.409,0,0,0-6.4,6.4A.668.668,0,0,0,4.273,84.374ZM10,78.646h6.26a5.052,5.052,0,0,1,5.008,4.382H4.993A5.065,5.065,0,0,1,10,78.646Z" transform="translate(-3.6 -66.219)" fill="#999"/></g></g></svg>