<svg xmlns="http://www.w3.org/2000/svg" width="12.764" height="18.155" viewBox="0 0 12.764 18.155"><g transform="translate(-18 -6.4)"><g transform="translate(18 6.4)"><path d="M24.3,7.681a5.027,5.027,0,0,1,5.031,5.031.641.641,0,0,0,1.281,0,6.3,6.3,0,1,0-12.608,0v11.2a.634.634,0,0,0,.641.641H30.124a.634.634,0,0,0,.641-.641V16.758a.634.634,0,0,0-.641-.641H19.266V12.712A5.048,5.048,0,0,1,24.3,7.681ZM29.483,17.4v5.874H19.266V17.4Z" transform="translate(-18 -6.4)" fill="#999"/><circle cx="1.031" cy="1.031" r="1.031" transform="translate(5.359 12.905)" fill="#999"/></g></g></svg>